<svg width="20" height="20" viewBox="0 0 20 20" fill="none" xmlns="http://www.w3.org/2000/svg">
<path d="M17.4085 5.82638C18.268 5.82638 18.9647 5.12962 18.9647 4.27013C18.9647 3.41063 18.268 2.71387 17.4085 2.71387C16.549 2.71387 15.8522 3.41063 15.8522 4.27013C15.8522 5.12962 16.549 5.82638 17.4085 5.82638Z" fill="url(#paint0_linear_63_2343)"/>
<path fill-rule="evenodd" clip-rule="evenodd" d="M17.8672 6.90815C17.7182 6.93389 17.5649 6.9473 17.4085 6.9473C15.9299 6.9473 14.7313 5.74869 14.7313 4.27012C14.7313 3.99941 14.7715 3.73809 14.8462 3.49179H3.53117C2.61069 3.49179 1.8645 4.23798 1.8645 5.15845V15.2268C1.8645 16.1473 2.61069 16.8935 3.53117 16.8935H16.2005C17.121 16.8935 17.8672 16.1473 17.8672 15.2268V6.90815ZM14.8419 7.87557C15.1673 8.20101 15.1673 8.72865 14.8419 9.05408L12.2455 11.6505C11.5946 12.3014 10.5393 12.3014 9.88846 11.6505L8.21711 9.97916L5.68653 12.5097C5.36109 12.8351 4.83346 12.8351 4.50802 12.5097C4.18259 12.1843 4.18259 11.6566 4.50803 11.3312L7.03861 8.80064C7.68948 8.14977 8.74475 8.14977 9.39563 8.80064L11.067 10.472L13.6634 7.87557C13.9888 7.55014 14.5164 7.55014 14.8419 7.87557Z" fill="url(#paint1_linear_63_2343)"/>
<defs>
<linearGradient id="paint0_linear_63_2343" x1="1.8645" y1="16.8935" x2="18.9647" y2="2.71387" gradientUnits="userSpaceOnUse">
<stop stop-color="#112035"/>
<stop offset="1" stop-color="#223755"/>
</linearGradient>
<linearGradient id="paint1_linear_63_2343" x1="1.8645" y1="16.8935" x2="18.9647" y2="2.71387" gradientUnits="userSpaceOnUse">
<stop stop-color="#112035"/>
<stop offset="1" stop-color="#223755"/>
</linearGradient>
</defs>
</svg>
